<svg width="128" height="128" viewBox="0 0 128 128" fill="none" xmlns="http://www.w3.org/2000/svg">
<path d="M124.8 52.1C120.5 49.6 114.8 49.3 110 50.7C109.4 45.5 106 41 102 37.8L100.4 36.5L98.9999 38.1C96.2999 41.2 95.4999 46.4 95.8999 50.4C96.1999 53.3 97.0999 56.3 98.8999 58.7C97.4999 59.5 95.9999 60.6 94.5999 61.1C91.7999 62.1 88.6999 63.1 85.6999 63.1H78.9999V49H65.9999V24H50.9999V36H25.9999V49H12.9999V63H1.79994L1.59994 64.5C1.09994 70.9 1.89994 77.1 4.59994 83L5.69994 85.2L5.79994 85.4C13.6999 98.8 27.4999 104.4 42.5999 104.4C71.7999 104.4 95.8999 91.3 106.9 63.8C114.3 64.2 121.9 62 125.5 54.9L126.4 53.1L124.8 52.1ZM27.9999 39H37.9999V50H27.9999V39ZM41.0999 83.2C41.0999 84.9 39.6999 86.3 37.9999 86.3C36.2999 86.3 34.8999 84.9 34.8999 83.2C34.8999 81.5 36.2999 80.1 37.9999 80.1C39.6999 80.2 41.0999 81.5 41.0999 83.2ZM27.9999 52H37.9999V63H27.9999V52ZM14.9999 52H25.9999V63H14.9999V52ZM42.6999 102.2C26.8999 102.1 18.3999 96.8 11.3999 89.8C13.4999 89.9 15.4999 90 17.2999 90C18.8999 90 20.4999 90 21.9999 89.9C25.8999 89.7 29.2999 89.2 32.0999 88.4C34.3999 93.7 38.5999 98.6 46.0999 102.2H42.6999ZM50.9999 63H39.9999V52H50.9999V63ZM50.9999 50H39.9999V39H50.9999V50ZM63.9999 63H52.9999V52H63.9999V63ZM63.9999 50H52.9999V39H63.9999V50ZM63.9999 37H52.9999V26H63.9999V37ZM76.9999 63H65.9999V52H76.9999V63ZM38.7999 81.2C38.5999 81.1 38.2999 81 37.9999 81C36.7999 81 35.7999 82 35.7999 83.2C35.7999 84.4 36.7999 85.4 37.9999 85.4C39.1999 85.4 40.1999 84.4 40.1999 83.2C40.1999 82.9 40.0999 82.6 39.9999 82.4C39.7999 82.7 39.5999 82.9 39.1999 82.9C38.6999 82.9 38.2999 82.5 38.2999 82C38.3999 81.6 38.5999 81.3 38.7999 81.2Z" fill="#019BC6"/>
</svg>
