<svg width="128" height="128" viewBox="0 0 128 128" fill="none" xmlns="http://www.w3.org/2000/svg">
<path fill-rule="evenodd" clip-rule="evenodd" d="M73.7 50.5H85V62H90.7C93.3 62 96 61.5 98.5 60.7C99.7 60.3 101.1 59.7 102.3 59C100.7 56.9 99.9 54.3 99.7 51.7C99.4 48.2 100.1 43.6 102.5 40.9L103.7 39.5L105.1 40.6C108.7 43.5 111.6 47.4 112.2 52C116.5 50.7 121.5 51 125.3 53.2L126.8 54.1L126 55.7C122.8 61.9 116.1 63.9 109.6 63.5C99.8 87.8 78.6 99.3 52.8 99.3C39.5 99.3 27.3 94.3 20.3 82.5L20.2 82.3L19.2 80.2C16.8 75 16.1 69.3 16.6 63.6L16.8 61.9H26.4V50.5H37.7V39.3H60.2V28H73.7V50.5Z" fill="#3A4D54"/>
<path d="M110.3 54.8C111.1 48.9 106.7 44.3 103.9 42.1C100.8 45.7 100.3 55.3 105.2 59.3C102.4 61.7 96.7 64 90.7 64H18.5C17.9 70.2 19 75.9 21.5 80.8L22.3 82.3C22.8 83.2 23.4 84 24 84.9C27 85.1 29.7 85.2 32.2 85.1C37.1 85 41.1 84.4 44.2 83.4C44.7 83.2 45.1 83.5 45.3 83.9C45.5 84.4 45.2 84.8 44.8 85C44.4 85.1 44 85.3 43.5 85.4C41.1 86.1 38.5 86.5 35.2 86.7H34.6C33.3 86.8 31.9 86.8 30.4 86.8C28.8 86.8 27.3 86.8 25.5 86.7C31.5 93.5 40.9 97.5 52.7 97.5C77.7 97.5 98.9 86.4 108.2 61.6C114.9 62.3 121.3 60.6 124.2 54.9C119.7 52.2 113.7 53.1 110.3 54.8Z" fill="#00AADA"/>
<path d="M110.3 54.8C111.1 48.9 106.7 44.3 103.9 42.1C100.8 45.7 100.3 55.3 105.2 59.3C102.4 61.7 96.7 64 90.7 64H22.7C22.4 73.5 25.9 80.7 32.2 85C37.1 84.9 41.1 84.3 44.2 83.3C44.7 83.1 45.1 83.4 45.3 83.8C45.5 84.3 45.2 84.7 44.8 84.9C44.4 85 44 85.2 43.5 85.3C41.1 86 38.3 86.5 35 86.7L34.9 86.6C43.4 91 55.7 90.9 69.9 85.5C85.7 79.4 100.5 67.8 110.8 54.6C110.6 54.7 110.4 54.7 110.3 54.8Z" fill="#28B8EB"/>
<path d="M18.6 71.5C19 74.8 20 77.9 21.5 80.8L22.3 82.3C22.8 83.2 23.4 84 24 84.9C27 85.1 29.7 85.2 32.2 85.1C37.1 85 41.1 84.4 44.2 83.4C44.7 83.2 45.1 83.5 45.3 83.9C45.5 84.4 45.2 84.8 44.8 85C44.4 85.1 44 85.3 43.5 85.4C41.1 86.1 38.3 86.6 35 86.8H34.6C33.3 86.9 31.9 86.9 30.5 86.9C28.9 86.9 27.3 86.9 25.6 86.8C31.6 93.6 41.1 97.6 52.9 97.6C74.3 97.6 92.9 89.5 103.7 71.6H18.6V71.5Z" fill="#028BB8"/>
<path d="M23.4 71.5C24.7 77.3 27.7 81.9 32.2 85C37.1 84.9 41.1 84.3 44.2 83.3C44.7 83.1 45.1 83.4 45.3 83.8C45.5 84.3 45.2 84.7 44.8 84.9C44.4 85 44 85.2 43.5 85.3C41.1 86 38.3 86.5 34.9 86.7C43.4 91.1 55.7 91 69.8 85.6C78.3 82.3 86.6 77.4 94 71.5H23.4Z" fill="#019BC6"/>
<path fill-rule="evenodd" clip-rule="evenodd" d="M28.3 52.4H38.1V62.2H28.3V52.4ZM29.1 53.2H29.9V61.3H29.1V53.2ZM30.5 53.2H31.3V61.3H30.5V53.2ZM32 53.2H32.8V61.3H32V53.2ZM33.5 53.2H34.3V61.3H33.5V53.2ZM35 53.2H35.8V61.3H35V53.2ZM36.5 53.2H37.3V61.3H36.5V53.2ZM39.5 41.2H49.3V51H39.5V41.2ZM40.4 42H41.2V50.1H40.4V42ZM41.8 42H42.6V50.1H41.8V42ZM43.3 42H44.1V50.1H43.3V42ZM44.8 42H45.6V50.1H44.8V42ZM46.2 42H47V50.1H46.2V42ZM47.7 42H48.5V50.1H47.7V42Z" fill="#00ACD3"/>
<path fill-rule="evenodd" clip-rule="evenodd" d="M39.5 52.4H49.3V62.2H39.5V52.4ZM40.4 53.2H41.2V61.3H40.4V53.2ZM41.8 53.2H42.6V61.3H41.8V53.2ZM43.3 53.2H44.1V61.3H43.3V53.2ZM44.8 53.2H45.6V61.3H44.8V53.2ZM46.2 53.2H47V61.3H46.2V53.2ZM47.7 53.2H48.5V61.3H47.7V53.2Z" fill="#23C2EE"/>
<path fill-rule="evenodd" clip-rule="evenodd" d="M50.8 52.4H60.6V62.2H50.8V52.4ZM51.6 53.2H52.4V61.3H51.6V53.2ZM53.1 53.2H53.9V61.3H53.1V53.2ZM54.6 53.2H55.4V61.3H54.6V53.2ZM56 53.2H56.8V61.3H56V53.2ZM57.5 53.2H58.3V61.3H57.5V53.2ZM59 53.2H59.8V61.3H59V53.2Z" fill="#00ACD3"/>
<path fill-rule="evenodd" clip-rule="evenodd" d="M50.8 41.2H60.6V51H50.8V41.2ZM51.6 42H52.4V50.1H51.6V42ZM53.1 42H53.9V50.1H53.1V42ZM54.6 42H55.4V50.1H54.6V42ZM56 42H56.8V50.1H56V42ZM57.5 42H58.3V50.1H57.5V42ZM59 42H59.8V50.1H59V42ZM62.1 52.4H71.9V62.2H62.1V52.4ZM62.9 53.2H63.7V61.3H62.9V53.2ZM64.4 53.2H65.2V61.3H64.4V53.2ZM65.8 53.2H66.6V61.3H65.8V53.2ZM67.3 53.2H68.1V61.3H67.3V53.2ZM68.8 53.2H69.6V61.3H68.8V53.2ZM70.3 53.2H71.1V61.3H70.3V53.2Z" fill="#23C2EE"/>
<path fill-rule="evenodd" clip-rule="evenodd" d="M62.1 41.2H71.9V51H62.1V41.2ZM62.9 42H63.7V50.1H62.9V42ZM64.4 42H65.2V50.1H64.4V42ZM65.8 42H66.6V50.1H65.8V42ZM67.3 42H68.1V50.1H67.3V42ZM68.8 42H69.6V50.1H68.8V42ZM70.3 42H71.1V50.1H70.3V42Z" fill="#00ACD3"/>
<path fill-rule="evenodd" clip-rule="evenodd" d="M62.1 29.9H71.9V39.7H62.1V29.9ZM62.9 30.7H63.7V38.8H62.9V30.7ZM64.4 30.7H65.2V38.8H64.4V30.7ZM65.8 30.7H66.6V38.8H65.8V30.7ZM67.3 30.7H68.1V38.8H67.3V30.7ZM68.8 30.7H69.6V38.8H68.8V30.7ZM70.3 30.7H71.1V38.8H70.3V30.7Z" fill="#23C2EE"/>
<path fill-rule="evenodd" clip-rule="evenodd" d="M73.4 52.4H83.2V62.2H73.4V52.4ZM74.2 53.2H75V61.3H74.2V53.2ZM75.6 53.2H76.4V61.3H75.6V53.2ZM77.1 53.2H77.9V61.3H77.1V53.2ZM78.6 53.2H79.4V61.3H78.6V53.2ZM80.1 53.2H80.9V61.3H80.1V53.2ZM81.6 53.2H82.4V61.3H81.6V53.2Z" fill="#00ACD3"/>
<path fill-rule="evenodd" clip-rule="evenodd" d="M48.7 78C50.2 78 51.4 79.2 51.4 80.7C51.4 82.2 50.2 83.4 48.7 83.4C47.2 83.4 46 82.2 46 80.7C46 79.2 47.2 78 48.7 78Z" fill="#D4EEF1"/>
<path fill-rule="evenodd" clip-rule="evenodd" d="M48.7 78.8C48.9 78.8 49.2 78.8 49.4 78.9C49.2 79 49 79.3 49 79.6C49 80 49.4 80.4 49.8 80.4C50.1 80.4 50.4 80.2 50.5 80C50.6 80.2 50.6 80.5 50.6 80.7C50.6 81.8 49.7 82.6 48.7 82.6C47.6 82.6 46.8 81.7 46.8 80.7C46.8 79.7 47.6 78.8 48.7 78.8ZM1 72.5H126.4C123.7 71.8 117.8 70.9 118.7 67.3C113.7 73 101.8 71.3 98.7 68.5C95.3 73.4 75.7 71.5 74.4 67.7C70.2 72.7 57.1 72.7 52.9 67.7C51.5 71.5 31.9 73.4 28.6 68.5C25.6 71.3 13.6 73 8.6 67.3C9.7 70.8 3.7 71.8 1 72.5Z" fill="#3A4D54"/>
<path d="M55.9 97.5C49.2 94.3 45.6 90 43.5 85.3C41 86 38 86.5 34.6 86.7C33.3 86.8 31.9 86.8 30.5 86.8C28.8 86.8 27.1 86.8 25.3 86.7C31.3 92.7 38.9 97.4 52.8 97.5H55.9Z" fill="#BFDBE0"/>
<path d="M46 89.6C45.1 88.3 44.2 86.8 43.5 85.3C41 86 38 86.5 34.6 86.7C36.9 87.9 40.3 89.1 46 89.6Z" fill="#D4EEF1"/>
</svg>
