<svg width="132" height="96" viewBox="0 0 132 96" fill="none" xmlns="http://www.w3.org/2000/svg">
<path d="M111.989 56V76.8546L107.575 70.3709L111.989 56Z" fill="#FFD900"/>
<path d="M130.613 70.2088L111.902 76.6532L116.355 70.1997L130.613 70.2088Z" fill="#FF9600"/>
<path d="M123.46 93.3851L111.896 76.5134L119.062 79.0086L123.46 93.3851Z" fill="#FFC800"/>
<path d="M100.438 93.2498L112.002 76.3781L111.978 84.3737L100.438 93.2498Z" fill="#FFC800"/>
<path d="M93.364 70.1704L112.074 76.6149L104.893 79.0612L93.364 70.1704Z" fill="#FF9600"/>
<path d="M111.926 56V76.8546L116.339 70.3709L111.926 56Z" fill="#FFC800"/>
<path d="M93.3243 70.2815L112.035 76.7259L107.582 70.2724L93.3243 70.2815Z" fill="#FFB900"/>
<path d="M100.478 93.3264L112.042 76.4546L104.876 78.9498L100.478 93.3264Z" fill="#FFD900"/>
<path d="M123.403 93.1916L111.839 76.3199L111.863 84.3154L123.403 93.1916Z" fill="#FF9600"/>
<path d="M130.636 70.1704L111.926 76.6149L119.107 79.0612L130.636 70.1704Z" fill="#FFC800"/>
<path d="M19.9886 56V76.8546L15.5747 70.3709L19.9886 56Z" fill="#FFD900"/>
<path d="M38.6127 70.2088L19.9023 76.6532L24.3553 70.1997L38.6127 70.2088Z" fill="#FF9600"/>
<path d="M31.4599 93.3851L19.8962 76.5134L27.0622 79.0086L31.4599 93.3851Z" fill="#FFC800"/>
<path d="M8.43836 93.2498L20.0021 76.3781L19.9779 84.3737L8.43836 93.2498Z" fill="#FFC800"/>
<path d="M1.36397 70.1704L20.0744 76.6149L12.8934 79.0612L1.36397 70.1704Z" fill="#FF9600"/>
<path d="M19.9255 56V76.8546L24.3394 70.3709L19.9255 56Z" fill="#FFC800"/>
<path d="M1.32427 70.2815L20.0347 76.7259L15.5817 70.2724L1.32427 70.2815Z" fill="#FFB900"/>
<path d="M8.47814 93.3264L20.0418 76.4546L12.8758 78.9498L8.47814 93.3264Z" fill="#FFD900"/>
<path d="M31.4029 93.1916L19.8392 76.3199L19.8635 84.3154L31.4029 93.1916Z" fill="#FF9600"/>
<path d="M38.636 70.1704L19.9256 76.6149L27.1066 79.0612L38.636 70.1704Z" fill="#FFC800"/>
<path d="M65.9818 0V33.3673L58.9196 22.9935L65.9818 0Z" fill="#FFD900"/>
<path d="M95.7805 22.7341L65.8437 33.0451L72.9687 22.7196L95.7805 22.7341Z" fill="#FF9600"/>
<path d="M84.3357 59.8162L65.8338 32.8215L77.2995 36.8138L84.3357 59.8162Z" fill="#FFC800"/>
<path d="M47.5015 59.5997L66.0034 32.605L65.9647 45.3979L47.5015 59.5997Z" fill="#FFC800"/>
<path d="M36.1823 22.6727L66.1191 32.9838L54.6295 36.8979L36.1823 22.6727Z" fill="#FF9600"/>
<path d="M65.8809 0V33.3673L72.9431 22.9935L65.8809 0Z" fill="#FFC800"/>
<path d="M36.1187 22.8503L66.0554 33.1614L58.9305 22.8359L36.1187 22.8503Z" fill="#FFB900"/>
<path d="M47.5653 59.7222L66.0672 32.7274L54.6015 36.7197L47.5653 59.7222Z" fill="#FFD900"/>
<path d="M84.2447 59.5065L65.7428 32.5118L65.7815 45.3047L84.2447 59.5065Z" fill="#FF9600"/>
<path d="M95.8177 22.6727L65.8809 32.9838L77.3705 36.8979L95.8177 22.6727Z" fill="#FFC800"/>
</svg>
