<svg width="131" height="97" viewBox="0 0 131 97" fill="none" xmlns="http://www.w3.org/2000/svg">
<path d="M110.989 56V76.8546L106.575 70.3709L110.989 56Z" fill="#EAEAEA"/>
<path d="M129.613 70.2088L110.902 76.6532L115.355 70.1997L129.613 70.2088Z" fill="#777777"/>
<path d="M122.46 93.3851L110.896 76.5134L118.062 79.0086L122.46 93.3851Z" fill="#C5C5C5"/>
<path d="M99.4385 93.2498L111.002 76.3781L110.978 84.3737L99.4385 93.2498Z" fill="#C2C2C2"/>
<path d="M92.364 70.1704L111.074 76.6149L103.893 79.0612L92.364 70.1704Z" fill="#7B7B7B"/>
<path d="M110.926 56V76.8546L115.339 70.3709L110.926 56Z" fill="#C3C3C3"/>
<path d="M92.3243 70.2815L111.035 76.7259L106.582 70.2724L92.3243 70.2815Z" fill="#A5A5A5"/>
<path d="M99.4783 93.3264L111.042 76.4546L103.876 78.9498L99.4783 93.3264Z" fill="#EAEAEA"/>
<path d="M122.403 93.1916L110.839 76.3199L110.863 84.3154L122.403 93.1916Z" fill="#797979"/>
<path d="M129.636 70.1704L110.926 76.6149L118.107 79.0612L129.636 70.1704Z" fill="#C3C3C3"/>
<path d="M19.9886 57V77.8546L15.5747 71.3709L19.9886 57Z" fill="#EAEAEA"/>
<path d="M38.6127 71.2088L19.9023 77.6532L24.3553 71.1997L38.6127 71.2088Z" fill="#777777"/>
<path d="M31.4599 94.3851L19.8962 77.5134L27.0622 80.0086L31.4599 94.3851Z" fill="#C5C5C5"/>
<path d="M8.43836 94.2498L20.0021 77.3781L19.9779 85.3737L8.43836 94.2498Z" fill="#C2C2C2"/>
<path d="M1.36397 71.1704L20.0744 77.6149L12.8934 80.0612L1.36397 71.1704Z" fill="#7B7B7B"/>
<path d="M19.9255 57V77.8546L24.3394 71.3709L19.9255 57Z" fill="#C3C3C3"/>
<path d="M1.32427 71.2815L20.0347 77.7259L15.5817 71.2724L1.32427 71.2815Z" fill="#A5A5A5"/>
<path d="M8.47814 94.3264L20.0418 77.4546L12.8758 79.9498L8.47814 94.3264Z" fill="#EAEAEA"/>
<path d="M31.4029 94.1916L19.8392 77.3199L19.8635 85.3154L31.4029 94.1916Z" fill="#797979"/>
<path d="M38.636 71.1704L19.9256 77.6149L27.1066 80.0612L38.636 71.1704Z" fill="#C3C3C3"/>
<path d="M64.9818 0V33.3673L57.9196 22.9935L64.9818 0Z" fill="#EAEAEA"/>
<path d="M94.7805 22.7341L64.8437 33.0451L71.9687 22.7196L94.7805 22.7341Z" fill="#777777"/>
<path d="M83.3357 59.8162L64.8338 32.8215L76.2995 36.8138L83.3357 59.8162Z" fill="#C5C5C5"/>
<path d="M46.5015 59.5997L65.0034 32.605L64.9647 45.3979L46.5015 59.5997Z" fill="#C2C2C2"/>
<path d="M35.1823 22.6727L65.1191 32.9838L53.6295 36.8979L35.1823 22.6727Z" fill="#7B7B7B"/>
<path d="M64.8809 0V33.3673L71.9431 22.9935L64.8809 0Z" fill="#C3C3C3"/>
<path d="M35.1187 22.8503L65.0554 33.1614L57.9305 22.8359L35.1187 22.8503Z" fill="#A5A5A5"/>
<path d="M46.5653 59.7222L65.0672 32.7274L53.6015 36.7197L46.5653 59.7222Z" fill="#EAEAEA"/>
<path d="M83.2448 59.5065L64.7429 32.5118L64.7817 45.3047L83.2448 59.5065Z" fill="#797979"/>
<path d="M94.8177 22.6727L64.8809 32.9838L76.3705 36.8979L94.8177 22.6727Z" fill="#C3C3C3"/>
</svg>
