<svg width="128" height="128" viewBox="0 0 128 128" fill="none" xmlns="http://www.w3.org/2000/svg">
<path d="M64 75.4C70.2961 75.4 75.4 70.296 75.4 64C75.4 57.7039 70.2961 52.6 64 52.6C57.704 52.6 52.6 57.7039 52.6 64C52.6 70.296 57.704 75.4 64 75.4Z" fill="#61DAFB"/>
<path d="M107.3 45.2C105.1 44.4 102.8 43.6 100.4 42.9C101 40.5 101.5 38.1 101.9 35.8C104 22.6 101.7 13.3 95.3 9.69998C93.4 8.59997 91.3 8.09998 88.9 8.09998C81.9 8.09998 73 13.3 64 22C55 13.3 46.1 8.09998 39.1 8.09998C36.7 8.09998 34.6 8.59997 32.7 9.69998C26.3 13.4 24 22.7 26.1 35.8C26.5 38.1 27 40.5 27.6 42.9C25.2 43.6 22.9 44.3 20.7 45.2C8.20003 50 1.40002 56.6 1.40002 64C1.40002 71.4 8.30003 78 20.7 82.8C22.9 83.6 25.2 84.4 27.6 85.1C27 87.5 26.5 89.9 26.1 92.2C24 105.4 26.3 114.7 32.7 118.3C34.6 119.4 36.7 119.9 39.1 119.9C46.2 119.9 55.1 114.7 64 106C73 114.7 81.9 119.9 88.9 119.9C91.3 119.9 93.4 119.4 95.3 118.3C101.7 114.6 104 105.3 101.9 92.2C101.5 89.9 101 87.5 100.4 85.1C102.8 84.4 105.1 83.7 107.3 82.8C119.8 78 126.6 71.4 126.6 64C126.6 56.6 119.8 50 107.3 45.2ZM92.5 14.7C96.6 17.1 98 24.5 96.3 35C96 37.1 95.5 39.3 94.9 41.6C89.7 40.4 84.2 39.6 78.4 39.1C75 34.3 71.5 30 68 26.1C75.4 18.8 82.9 13.8 89 13.8C90.3 13.8 91.5 14.1 92.5 14.7ZM81.3 74C79.5 77.2 77.4 80.4 75.2 83.6C71.5 83.9 67.8 84 64 84C60.1 84 56.4 83.9 52.8 83.6C50.6 80.4 48.6 77.2 46.8 74C44.9 70.7 43.1 67.3 41.5 64C43.1 60.7 44.9 57.3 46.8 54C48.6 50.8 50.7 47.6 52.9 44.4C56.6 44.1 60.3 44 64.1 44C68 44 71.7 44.1 75.3 44.4C77.5 47.6 79.5 50.8 81.3 54C83.2 57.3 85 60.7 86.6 64C84.9 67.3 83.2 70.6 81.3 74ZM89.6 70.7C91.1 74.2 92.3 77.6 93.4 81C90 81.8 86.4 82.4 82.6 82.9C83.8 81 85.1 79 86.2 76.9C87.4 74.8 88.5 72.7 89.6 70.7ZM64 97.8C61.6 95.2 59.3 92.4 57.1 89.5C59.4 89.6 61.7 89.7 64 89.7C66.3 89.7 68.6 89.6 70.9 89.5C68.7 92.4 66.4 95.2 64 97.8ZM45.4 82.8C41.6 82.3 38 81.7 34.6 80.9C35.7 77.6 36.9 74.1 38.4 70.6C39.5 72.6 40.6 74.7 41.8 76.7C43 78.9 44.2 80.8 45.4 82.8ZM38.4 57.3C36.9 53.8 35.7 50.4 34.6 47C38 46.2 41.6 45.6 45.4 45.1C44.2 47 42.9 49 41.8 51.1C40.6 53.2 39.5 55.3 38.4 57.3ZM64 30.2C66.4 32.8 68.7 35.6 70.9 38.5C68.6 38.4 66.3 38.3 64 38.3C61.7 38.3 59.4 38.4 57.1 38.5C59.3 35.6 61.6 32.8 64 30.2ZM86.2 51.2L82.6 45.2C86.4 45.7 90 46.3 93.4 47.1C92.3 50.4 91.1 53.9 89.6 57.4C88.5 55.3 87.4 53.2 86.2 51.2ZM31.7 35C30 24.5 31.4 17.1 35.5 14.7C36.5 14.1 37.7 13.8 39 13.8C45 13.8 52.5 18.7 60 26.1C56.5 29.9 53 34.3 49.6 39.1C43.8 39.6 38.3 40.5 33.1 41.6C32.5 39.3 32.1 37.1 31.7 35ZM7.00002 64C7.00002 59.3 12.7 54.3 22.7 50.6C24.7 49.8 26.9 49.1 29.1 48.5C30.7 53.5 32.7 58.8 35.1 64.1C32.7 69.4 30.6 74.6 29.1 79.6C15.3 75.6 7.00002 69.6 7.00002 64ZM35.5 113.3C31.4 110.9 30 103.5 31.7 93C32 90.9 32.5 88.7 33.1 86.4C38.3 87.6 43.8 88.4 49.6 88.9C53 93.7 56.5 98 60 101.9C52.6 109.2 45.1 114.2 39 114.2C37.7 114.2 36.5 113.9 35.5 113.3ZM96.3 93C98 103.5 96.6 110.9 92.5 113.3C91.5 113.9 90.3 114.2 89 114.2C83 114.2 75.5 109.3 68 101.9C71.5 98.1 75 93.7 78.4 88.9C84.2 88.4 89.7 87.5 94.9 86.4C95.5 88.7 95.9 90.9 96.3 93ZM105.3 77.4C103.3 78.2 101.1 78.9 98.9 79.5C97.3 74.5 95.3 69.2 92.9 63.9C95.3 58.6 97.4 53.4 98.9 48.4C112.7 52.4 121 58.4 121 64C121 68.7 115.2 73.7 105.3 77.4Z" fill="#61DAFB"/>
</svg>
